REM DIRINDEX 1\2,1\3,1\4,1\5
REM DIRNAME "folder01","folder02","folder03","folder04","folder05"
TITLE ""
FILE "1Q_t_2001-2009.mp3" MP3
  TRACK 01 AUDIO
    TITLE "0:"
    INDEX 01 00:00:00
  TRACK 02 AUDIO
    TITLE "2:cjc172_7010"
    INDEX 01 00:00:10
  TRACK 03 AUDIO
    TITLE "0:"
    INDEX 01 00:01:61
  TRACK 04 AUDIO
    TITLE "2:cjc172_7011"
    INDEX 01 00:02:35
  TRACK 05 AUDIO
    TITLE "0:"
    INDEX 01 00:03:40
  TRACK 06 AUDIO
    TITLE "3:cjc172_7012"
    INDEX 01 00:04:10
  TRACK 07 AUDIO
    TITLE "0:"
    INDEX 01 00:05:35
  TRACK 08 AUDIO
    TITLE "4:cjc172_7013"
    INDEX 01 00:05:43
  TRACK 09 AUDIO
    TITLE "0:"
    INDEX 01 00:07:46
  TRACK 10 AUDIO
    TITLE "5:cjc172_7014"
    INDEX 01 00:07:55
  TRACK 11 AUDIO
    TITLE "0:"
    INDEX 01 00:12:10
  TRACK 12 AUDIO
    TITLE "3:cjc172_7015"
    INDEX 01 00:12:57
  TRACK 13 AUDIO
    TITLE "0:"
    INDEX 01 00:13:70
  TRACK 14 AUDIO
    TITLE "4:cjc172_7016"
    INDEX 01 00:14:07
  TRACK 15 AUDIO
    TITLE "0:"
    INDEX 01 00:15:22
  TRACK 16 AUDIO
    TITLE "5:cjc172_7017"
    INDEX 01 00:15:33
  TRACK 17 AUDIO
    TITLE "0:"
    INDEX 01 00:20:07
  TRACK 18 AUDIO
    TITLE "3:cjc172_7018"
    INDEX 01 00:20:54
  TRACK 19 AUDIO
    TITLE "0:"
    INDEX 01 00:21:73
  TRACK 20 AUDIO
    TITLE "4:cjc172_7019"
    INDEX 01 00:22:08
  TRACK 21 AUDIO
    TITLE "0:"
    INDEX 01 00:26:18
  TRACK 22 AUDIO
    TITLE "5:cjc172_7020"
    INDEX 01 00:26:25
  TRACK 23 AUDIO
    TITLE "0:"
    INDEX 01 00:30:41
  TRACK 24 AUDIO
    TITLE "3:cjc172_7021"
    INDEX 01 00:31:13
  TRACK 25 AUDIO
    TITLE "0:"
    INDEX 01 00:32:18
  TRACK 26 AUDIO
    TITLE "4:cjc172_7022"
    INDEX 01 00:32:28
  TRACK 27 AUDIO
    TITLE "0:"
    INDEX 01 00:35:71
  TRACK 28 AUDIO
    TITLE "5:cjc172_7023"
    INDEX 01 00:36:06
  TRACK 29 AUDIO
    TITLE "0:"
    INDEX 01 00:40:29
  TRACK 30 AUDIO
    TITLE "3:cjc172_7024"
    INDEX 01 00:41:01
  TRACK 31 AUDIO
    TITLE "0:"
    INDEX 01 00:42:09
  TRACK 32 AUDIO
    TITLE "4:cjc172_7025"
    INDEX 01 00:42:19
  TRACK 33 AUDIO
    TITLE "0:"
    INDEX 01 00:43:53
  TRACK 34 AUDIO
    TITLE "5:cjc172_7026"
    INDEX 01 00:43:61
  TRACK 35 AUDIO
    TITLE "0:"
    INDEX 01 00:49:54
  TRACK 36 AUDIO
    TITLE "3:cjc172_7027"
    INDEX 01 00:50:24
  TRACK 37 AUDIO
    TITLE "0:"
    INDEX 01 00:51:29
  TRACK 38 AUDIO
    TITLE "4:cjc172_7028"
    INDEX 01 00:51:39
  TRACK 39 AUDIO
    TITLE "0:"
    INDEX 01 00:52:38
  TRACK 40 AUDIO
    TITLE "5:cjc172_7029"
    INDEX 01 00:52:48
  TRACK 41 AUDIO
    TITLE "0:"
    INDEX 01 00:57:30
  TRACK 42 AUDIO
    TITLE "3:cjc172_7030"
    INDEX 01 00:58:04
  TRACK 43 AUDIO
    TITLE "0:"
    INDEX 01 00:59:13
  TRACK 44 AUDIO
    TITLE "4:cjc172_7031"
    INDEX 01 00:59:21
  TRACK 45 AUDIO
    TITLE "0:"
    INDEX 01 01:00:40
  TRACK 46 AUDIO
    TITLE "5:cjc172_7032"
    INDEX 01 01:00:48
  TRACK 47 AUDIO
    TITLE "0:"
    INDEX 01 01:05:72
  TRACK 48 AUDIO
    TITLE "3:cjc172_7033"
    INDEX 01 01:06:43
  TRACK 49 AUDIO
    TITLE "0:"
    INDEX 01 01:07:54
  TRACK 50 AUDIO
    TITLE "4:cjc172_7034"
    INDEX 01 01:07:64
  TRACK 51 AUDIO
    TITLE "0:"
    INDEX 01 01:09:29
  TRACK 52 AUDIO
    TITLE "5:cjc172_7035"
    INDEX 01 01:09:37
  TRACK 53 AUDIO
    TITLE "0:"
    INDEX 01 01:13:07
  TRACK 54 AUDIO
    TITLE "3:cjc172_7036"
    INDEX 01 01:13:54
  TRACK 55 AUDIO
    TITLE "0:"
    INDEX 01 01:15:00
  TRACK 56 AUDIO
    TITLE "4:cjc172_7037"
    INDEX 01 01:15:10
  TRACK 57 AUDIO
    TITLE "0:"
    INDEX 01 01:17:52
  TRACK 58 AUDIO
    TITLE "5:cjc172_7038"
    INDEX 01 01:17:60
  TRACK 59 AUDIO
    TITLE "0:"
    INDEX 01 01:23:68
